<svg width="432" height="108" viewBox="0 0 432 108" fill="none" xmlns="http://www.w3.org/2000/svg">
<path d="M63 30H9C8.20435 30 7.44129 30.3161 6.87868 30.8787C6.31607 31.4413 6 32.2044 6 33C6.00013 38.266 7.38639 43.4391 10.0194 47.9996C12.6525 52.56 16.4395 56.347 21 58.98V63C21 63.7956 21.3161 64.5587 21.8787 65.1213C22.4413 65.6839 23.2044 66 24 66H48C48.7956 66 49.5587 65.6839 50.1213 65.1213C50.6839 64.5587 51 63.7956 51 63V58.98C55.5605 56.347 59.3475 52.56 61.9806 47.9996C64.6136 43.4391 65.9999 38.266 66 33C66 32.2044 65.6839 31.4413 65.1213 30.8787C64.5587 30.3161 63.7956 30 63 30ZM46.65 54.48C46.1507 54.7316 45.7316 55.1177 45.4401 55.5948C45.1485 56.0719 44.9961 56.6209 45 57.18V60H27V57.18C27.0039 56.6209 26.8515 56.0719 26.5599 55.5948C26.2684 55.1177 25.8493 54.7316 25.35 54.48C21.8007 52.7251 18.7408 50.1193 16.4429 46.8949C14.145 43.6705 12.6805 39.9277 12.18 36H59.82C59.3195 39.9277 57.855 43.6705 55.5571 46.8949C53.2592 50.1193 50.1993 52.7251 46.65 54.48ZM27 27V23.79C26.9956 20.2609 25.6185 16.8719 23.16 14.34C22.4644 13.6372 21.9154 12.8032 21.5446 11.8866C21.1738 10.9699 20.9887 9.98875 21 9V6H15V9C14.9888 12.5499 16.3671 15.9632 18.84 18.51C20.2302 19.9149 21.0069 21.8136 21 23.79V27H27ZM39 27V23.79C38.9956 20.2609 37.6185 16.8719 35.16 14.34C34.4645 13.6372 33.9154 12.8032 33.5446 11.8866C33.1738 10.9699 32.9887 9.98875 33 9V6H27V9C27.0044 12.5291 28.3815 15.9181 30.84 18.45C31.5355 19.1528 32.0846 19.9868 32.4554 20.9034C32.8262 21.8201 33.0113 22.8012 33 23.79V27H39ZM51 27V23.79C50.9956 20.2609 49.6185 16.8719 47.16 14.34C46.4645 13.6372 45.9154 12.8032 45.5446 11.8866C45.1738 10.9699 44.9887 9.98875 45 9V6H39V9C39.0044 12.5291 40.3815 15.9181 42.84 18.45C43.5355 19.1528 44.0846 19.9868 44.4554 20.9034C44.8262 21.8201 45.0113 22.8012 45 23.79V27H51Z" fill="#418C80" fill-opacity="0.25"/>
<path d="M172.794 33.192C172.433 32.9195 172.015 32.7316 171.572 32.6423C171.128 32.553 170.67 32.5645 170.232 32.676C169.505 32.8791 168.755 32.988 168 33C163.038 33 159 28.962 158.991 24.189C159.006 24.087 159.039 23.781 159.042 23.679C159.062 23.21 158.971 22.7429 158.776 22.3156C158.582 21.8882 158.29 21.5125 157.924 21.2188C157.558 20.925 157.128 20.7215 156.669 20.6246C156.209 20.5277 155.734 20.5402 155.28 20.661C154.538 20.8725 153.771 20.9864 153 21C148.038 21 144 16.962 144 12C144 11.349 144.093 10.668 144.297 9.852C144.412 9.38622 144.415 8.89954 144.303 8.43281C144.191 7.96607 143.97 7.5329 143.656 7.16965C143.342 6.8064 142.946 6.52368 142.501 6.34521C142.055 6.16674 141.574 6.09774 141.096 6.144C133.666 6.83646 126.765 10.2848 121.75 15.8103C116.736 21.3358 113.971 28.5382 114 36C114 52.542 127.458 66 144 66C160.542 66 174 52.542 174 36C174 35.853 173.991 35.709 173.979 35.52C173.969 35.0679 173.857 34.6239 173.652 34.2208C173.447 33.8178 173.154 33.4662 172.794 33.192ZM144 60C130.767 60 120 49.233 120 36C119.979 30.6698 121.741 25.4857 125.006 21.2725C128.271 17.0594 132.851 14.0594 138.018 12.75C138.215 16.5922 139.879 20.2124 142.666 22.8638C145.454 25.5153 149.153 26.9958 153 27L153.303 26.997C153.991 30.3518 155.806 33.3706 158.445 35.553C161.084 37.7355 164.39 38.9506 167.814 38.997C166.332 50.823 156.219 60 144 60Z" fill="#418C80" fill-opacity="0.25"/>
<path d="M145.5 39C147.985 39 150 36.9853 150 34.5C150 32.0147 147.985 30 145.5 30C143.015 30 141 32.0147 141 34.5C141 36.9853 143.015 39 145.5 39Z" fill="#418C80" fill-opacity="0.25"/>
<path d="M133.5 30C135.985 30 138 27.9853 138 25.5C138 23.0147 135.985 21 133.5 21C131.015 21 129 23.0147 129 25.5C129 27.9853 131.015 30 133.5 30Z" fill="#418C80" fill-opacity="0.25"/>
<path d="M130.5 42C132.985 42 135 39.9853 135 37.5C135 35.0147 132.985 33 130.5 33C128.015 33 126 35.0147 126 37.5C126 39.9853 128.015 42 130.5 42Z" fill="#418C80" fill-opacity="0.25"/>
<path d="M154.5 51C156.985 51 159 48.9853 159 46.5C159 44.0147 156.985 42 154.5 42C152.015 42 150 44.0147 150 46.5C150 48.9853 152.015 51 154.5 51Z" fill="#418C80" fill-opacity="0.25"/>
<path d="M139.5 54C141.985 54 144 51.9853 144 49.5C144 47.0147 141.985 45 139.5 45C137.015 45 135 47.0147 135 49.5C135 51.9853 137.015 54 139.5 54Z" fill="#418C80" fill-opacity="0.25"/>
<path d="M252 6C238.53 6 228 12.6 228 21V51C228 59.4 238.53 66 252 66C265.47 66 276 59.4 276 51V21C276 12.6 265.47 6 252 6ZM252 60C241.38 60 234 55.26 234 51V30.99C239.357 34.4385 245.632 36.1851 252 36C258.368 36.1851 264.643 34.4385 270 30.99V51C270 55.26 262.62 60 252 60ZM252 30C241.38 30 234 25.26 234 21C234 16.74 241.38 12 252 12C262.62 12 270 16.74 270 21C270 25.26 262.62 30 252 30Z" fill="#418C80" fill-opacity="0.25"/>
<path d="M252 26.13C256.971 26.13 261 23.8332 261 21C261 18.1668 256.971 15.87 252 15.87C247.029 15.87 243 18.1668 243 21C243 23.8332 247.029 26.13 252 26.13Z" fill="#418C80" fill-opacity="0.25"/>
<path d="M345 58.98V63C345 63.7956 345.316 64.5587 345.879 65.1213C346.441 65.6839 347.204 66 348 66H372C372.796 66 373.559 65.6839 374.121 65.1213C374.684 64.5587 375 63.7956 375 63V58.98C379.56 56.347 383.348 52.56 385.981 47.9996C388.614 43.4391 390 38.266 390 33C390 32.2043 389.684 31.4413 389.121 30.8787C388.559 30.3161 387.796 30 387 30C386.945 28.1632 386.42 26.3712 385.474 24.7954C384.529 23.2197 383.195 21.9129 381.6 21C381.218 18.3868 379.906 15.999 377.906 14.2744C375.906 12.5497 373.351 11.6038 370.71 11.61C369.697 11.6083 368.689 11.7394 367.71 12C365.645 10.0286 362.9 8.92856 360.045 8.92856C357.19 8.92856 354.445 10.0286 352.38 12C351.401 11.7394 350.393 11.6083 349.38 11.61C346.729 11.5893 344.159 12.5287 342.147 14.2546C340.134 15.9806 338.814 18.3765 338.43 21C336.83 21.9091 335.49 23.2143 334.539 24.7903C333.588 26.3663 333.058 28.1603 333 30C332.204 30 331.441 30.3161 330.879 30.8787C330.316 31.4413 330 32.2043 330 33C330 38.266 331.386 43.4391 334.019 47.9996C336.652 52.56 340.44 56.347 345 58.98ZM342.33 25.98L344.82 25.2L344.34 22.5C344.348 21.8539 344.483 21.2156 344.737 20.6217C344.992 20.0278 345.361 19.4898 345.823 19.0385C346.286 18.5872 346.833 18.2314 347.433 17.9915C348.033 17.7515 348.674 17.6321 349.32 17.64C350.186 17.635 351.041 17.841 351.81 18.24L354.24 19.59L355.74 17.28C356.209 16.5808 356.843 16.0078 357.586 15.6116C358.329 15.2154 359.158 15.0082 360 15.0082C360.842 15.0082 361.671 15.2154 362.414 15.6116C363.157 16.0078 363.791 16.5808 364.26 17.28L365.76 19.59L368.19 18.24C368.959 17.841 369.814 17.635 370.68 17.64C371.978 17.6237 373.23 18.1176 374.167 19.0153C375.104 19.9131 375.651 21.1429 375.69 22.44L375.21 24.99L377.67 25.83C378.577 26.114 379.379 26.6627 379.973 27.4058C380.566 28.1488 380.924 29.0522 381 30H339C339.076 29.0522 339.434 28.1488 340.027 27.4058C340.621 26.6627 341.423 26.114 342.33 25.83V25.98ZM383.82 36C383.319 39.9277 381.855 43.6705 379.557 46.8949C377.259 50.1193 374.199 52.7251 370.65 54.48C370.151 54.7316 369.732 55.1177 369.44 55.5948C369.149 56.0718 368.996 56.6209 369 57.18V60H351V57.18C351.004 56.6209 350.851 56.0718 350.56 55.5948C350.268 55.1177 349.849 54.7316 349.35 54.48C345.801 52.7251 342.741 50.1193 340.443 46.8949C338.145 43.6705 336.681 39.9277 336.18 36H383.82Z" fill="#418C80" fill-opacity="0.25"/>
</svg>
